<svg width="23" height="9" viewBox="0 0 23 9" fill="none" xmlns="http://www.w3.org/2000/svg">
<path d="M8.43359 8.76437L9.60185 0.282715H11.4272L10.2955 8.76437H8.43359Z" fill="#3C58BF"/>
<path d="M8.43359 8.76437L9.93042 0.282715H11.4272L10.2955 8.76437H8.43359Z" fill="#293688"/>
<path d="M16.9031 0.376963C16.538 0.188482 15.9539 0 15.2237 0C13.3983 0 12.084 1.17801 12.084 2.87434C12.084 4.14659 12.9967 4.80627 13.7269 5.23035C14.4571 5.65444 14.6761 5.93716 14.6761 6.31412C14.6761 6.87956 14.092 7.16228 13.5809 7.16228C12.8507 7.16228 12.4491 7.02092 11.8285 6.69108L11.5729 6.54972L11.3174 8.48166C11.7555 8.71726 12.5587 8.95286 13.3983 8.95286C15.3333 8.95286 16.611 7.77485 16.611 5.98428C16.611 4.99475 16.1364 4.24083 15.0412 3.62826C14.384 3.20418 13.9825 2.96858 13.9825 2.5445C13.9825 2.16753 14.311 1.79057 15.0412 1.79057C15.6618 1.79057 16.0999 1.93193 16.4285 2.12041L16.611 2.21465L16.9031 0.376963Z" fill="#3C58BF"/>
<path d="M16.9031 0.376963C16.538 0.188482 15.9539 0 15.2237 0C13.3983 0 12.4126 1.17801 12.4126 2.87434C12.4126 4.14659 12.9967 4.80627 13.7269 5.23035C14.4571 5.65444 14.6761 5.93716 14.6761 6.31412C14.6761 6.87956 14.092 7.16228 13.5809 7.16228C12.8507 7.16228 12.4491 7.02092 11.8285 6.69108L11.5729 6.54972L11.3174 8.48166C11.7555 8.71726 12.5587 8.95286 13.3983 8.95286C15.3333 8.95286 16.611 7.77485 16.611 5.98428C16.611 4.99475 16.1364 4.24083 15.0412 3.62826C14.384 3.20418 13.9825 2.96858 13.9825 2.5445C13.9825 2.16753 14.311 1.79057 15.0412 1.79057C15.6618 1.79057 16.0999 1.93193 16.4285 2.12041L16.611 2.21465L16.9031 0.376963Z" fill="#293688"/>
<path d="M20.0433 0.282715C19.6052 0.282715 19.2766 0.329835 19.0941 0.895278L16.356 8.76437H18.3274L18.6925 7.35076H21.029L21.248 8.76437H23.0004L21.4671 0.282715H20.0433ZM19.2036 5.93715C19.3131 5.51307 19.9337 3.43978 19.9337 3.43978C19.9337 3.43978 20.0798 2.92145 20.1893 2.59161L20.2988 3.39265C20.2988 3.39265 20.6639 5.51307 20.7369 5.98427H19.2036V5.93715Z" fill="#3C58BF"/>
<path d="M20.4814 0.282715C20.0433 0.282715 19.7147 0.329835 19.5321 0.895278L16.356 8.76437H18.3274L18.6925 7.35076H21.029L21.248 8.76437H23.0004L21.4671 0.282715H20.4814ZM19.2036 5.93715C19.3496 5.46595 19.9337 3.43978 19.9337 3.43978C19.9337 3.43978 20.0798 2.92145 20.1893 2.59161L20.2988 3.39265C20.2988 3.39265 20.6639 5.51307 20.7369 5.98427H19.2036V5.93715Z" fill="#293688"/>
<path d="M5.07452 6.21987L4.89198 4.99474C4.56341 3.58113 3.50468 2.02617 2.33643 1.27224L3.97928 8.81149H5.95071L8.90785 0.329834H6.93643L5.07452 6.21987Z" fill="#3C58BF"/>
<path d="M5.07452 6.21987L4.89198 4.99474C4.56341 3.58113 3.50468 2.02617 2.33643 1.27224L3.97928 8.81149H5.95071L8.90785 0.329834H7.30151L5.07452 6.21987Z" fill="#293688"/>
<path d="M0 0.282715L0.328571 0.376956C2.66508 1.08376 4.27143 2.87433 4.89206 4.99475L4.23492 0.989519C4.1254 0.424076 3.79683 0.282715 3.39524 0.282715H0Z" fill="#FFBC00"/>
<path d="M0 0.282715C2.33651 0.989519 4.27143 2.82721 4.89206 4.94763L4.27143 1.60208C4.1619 1.03664 3.79683 0.706797 3.39524 0.706797L0 0.282715Z" fill="#F7981D"/>
<path d="M0 0.282715C2.33651 0.989519 4.27143 2.82721 4.89206 4.94763L4.45397 3.10993C4.34444 2.54449 4.19841 1.97905 3.6873 1.74344L0 0.282715Z" fill="#ED7C00"/>
<path d="M6.90003 5.93713L5.65876 4.33504L5.07463 6.12561L4.9286 4.9476C4.60003 3.53399 3.5413 1.97902 2.37305 1.2251L4.0159 8.76435H5.98733L6.90003 5.93713Z" fill="#051244"/>
<path d="M10.2955 8.76433L8.72566 6.69104L8.43359 8.76433H10.2955Z" fill="#051244"/>
<path d="M14.4936 5.8429C14.6396 6.03138 14.7126 6.17274 14.6761 6.36122C14.6761 6.92666 14.092 7.20938 13.5809 7.20938C12.8507 7.20938 12.4491 7.06802 11.8285 6.73818L11.5729 6.59682L11.3174 8.52875C11.7555 8.76435 12.5587 8.99996 13.3983 8.99996C14.5666 8.99996 15.5158 8.57587 16.0634 7.82195L14.4936 5.8429Z" fill="#051244"/>
<path d="M16.6113 8.76431H18.3272L18.6923 7.3507H21.0288L21.2478 8.76431H23.0002L22.3796 5.32453L20.1891 2.59155L20.2986 3.34548C20.2986 3.34548 20.6637 5.46589 20.7367 5.93709H19.2034C19.3494 5.46589 19.9336 3.43972 19.9336 3.43972C19.9336 3.43972 20.0796 2.92139 20.1891 2.59155" fill="#051244"/>
</svg>
